<svg id="icons" xmlns="http://www.w3.org/2000/svg" viewBox="0 0 45.06 47.71"><defs><style>.cls-1,.cls-2{fill:none;stroke:#fff;stroke-width:2px;}.cls-1{stroke-miterlimit:10;}.cls-2{stroke-linecap:round;stroke-linejoin:round;}</style></defs><title>sh1</title><path class="cls-1" d="M167,61.62l-.17-.18c-.86-.91-1.11-2.09-.54-2.62l2.39-2.25a2.23,2.23,0,0,1,3.14.15l.17.18A2.23,2.23,0,0,1,172,60L169.6,62.3C169,62.84,167.87,62.53,167,61.62Z" transform="translate(-128.59 -48)"/><path class="cls-1" d="M147,95s1.95-2,3-3c8.15.6,11.19-5,12-6" transform="translate(-128.59 -48)"/><path class="cls-1" d="M167.64,80.34l-.17-.15c-.86-.75-1.19-1.8-.71-2.35l2-2.31a2.05,2.05,0,0,1,2.89-.17l.17.15a2.05,2.05,0,0,1,.25,2.88l-2,2.31C169.59,81.25,168.5,81.09,167.64,80.34Z" transform="translate(-128.59 -48)"/><path class="cls-1" d="M148,88a15.51,15.51,0,0,0-1.92-14.25,28.6,28.6,0,0,0,1.44-7.16,6.19,6.19,0,0,0-1.29-4.15,1.74,1.74,0,0,0-3,.37c-1.64,5.23-1.94,6.66-3,9.28-1.13,2.94-.48,7.06-1,8.27C139.14,80.6,137,84,137,84" transform="translate(-128.59 -48)"/><path class="cls-1" d="M167.65,74.05l-.17-.15c-.88-.76-1.21-1.83-.73-2.39l2-2.35a2.09,2.09,0,0,1,2.94-.18l.17.15a2.09,2.09,0,0,1,.26,2.93l-2,2.35C169.64,75,168.53,74.81,167.65,74.05Z" transform="translate(-128.59 -48)"/><path class="cls-1" d="M167.65,67.93l-.17-.15c-.88-.76-1.21-1.83-.73-2.39l2-2.35a2.09,2.09,0,0,1,2.94-.18l.17.15a2.09,2.09,0,0,1,.26,2.93l-2,2.35C169.64,68.85,168.53,68.68,167.65,67.93Z" transform="translate(-128.59 -48)"/><line class="cls-1" x1="26.41" y1="35" x2="29.41" y2="35"/><path class="cls-1" d="M168,57V52a3,3,0,0,0-3-3H148a3,3,0,0,0-3,3V62" transform="translate(-128.59 -48)"/><path class="cls-1" d="M148,86h17a3,3,0,0,0,3-3h0V81" transform="translate(-128.59 -48)"/><polyline class="cls-1" points="19.41 47 6.41 34 1.41 39 9.41 47"/><line class="cls-1" x1="6.41" y1="39" x2="7.41" y2="40"/><polyline class="cls-1" points="33.41 11 33.41 16 23.41 16 23.41 7 30.41 7"/><polyline class="cls-2" points="26.41 10 28.41 13 33.41 8"/><polyline class="cls-1" points="33.41 25 33.41 30 23.41 30 23.41 21 30.41 21"/><polyline class="cls-2" points="26.41 24 28.41 27 33.41 22"/></svg>