<svg id="icons" xmlns="http://www.w3.org/2000/svg" viewBox="0 0 48 37"><defs><style>.cls-1{fill:none;stroke:#fff;stroke-miterlimit:10;stroke-width:2px;}</style></defs><title>sh2</title><rect class="cls-1" x="1" y="17" width="31" height="19" rx="1" ry="1"/><line class="cls-1" x1="1" y1="27" x2="32" y2="27"/><line class="cls-1" x1="1" y1="31" x2="32" y2="31"/><line class="cls-1" x1="35" y1="13" x2="37" y2="13"/><path class="cls-1" d="M151.59,229.08a4,4,0,1,1,6.85,0" transform="translate(-128 -214)"/><path class="cls-1" d="M139,229v-7a2.8,2.8,0,0,0,3-3h26a2.8,2.8,0,0,0,3,3v10a2.8,2.8,0,0,0-3,3h-6" transform="translate(-128 -214)"/><line class="cls-1" x1="19" y1="13" x2="17" y2="13"/><polyline class="cls-1" points="7 15 7 1 47 1 47 25 34 25"/></svg>