<svg id="icons" xmlns="http://www.w3.org/2000/svg" viewBox="0 0 48 34"><defs><style>.cls-1{fill:none;stroke:#fff;stroke-miterlimit:10;stroke-width:2px;}</style></defs><title>sh3</title><path class="cls-1" d="M219.83,246a3,3,0,1,1-5.66,0" transform="translate(-208 -217)"/><path class="cls-1" d="M225.83,246a3,3,0,1,1-5.66,0" transform="translate(-208 -217)"/><path class="cls-1" d="M243.83,246a3,3,0,1,1-5.66,0" transform="translate(-208 -217)"/><path class="cls-1" d="M249.83,246a3,3,0,1,1-5.66,0" transform="translate(-208 -217)"/><path class="cls-1" d="M248,241c3.43,0,7-4.57,7-10s-3.57-10-7-10H216c-3.43,0-7,4.57-7,10s3.57,10,7,10Z" transform="translate(-208 -217)"/><line class="cls-1" x1="1" y1="25" x2="1" y2="29"/><line class="cls-1" x1="4" y1="27" x2="1" y2="27"/><rect class="cls-1" x="4" y="24" width="40" height="5" rx="2" ry="2"/><line class="cls-1" x1="47" y1="25" x2="47" y2="29"/><line class="cls-1" x1="44" y1="27" x2="47" y2="27"/><line class="cls-1" x1="38" x2="38" y2="22"/><line class="cls-1" x1="31" y1="22" x2="31"/><line class="cls-1" x1="36" y1="8" x2="31" y2="8"/><line class="cls-1" x1="36" y1="13" x2="31" y2="13"/><line class="cls-1" x1="36" y1="18" x2="31" y2="18"/><line class="cls-1" x1="11" y1="1" x2="17" y2="1"/></svg>